{
  "asset": {
    "version": "2.0",
    "generator": "THREE.GLTFExporter r165"
  },
  "scenes": [
    {
      "name": "Scene",
      "nodes": [
        5,
        6
      ]
    }
  ],
  "scene": 0,
  "nodes": [
    {
      "name": "Object_2",
      "extras": {
        "name": "Object_2"
      },
      "mesh": 0
    },
    {
      "name": "Object_3",
      "extras": {
        "name": "Object_3"
      },
      "mesh": 1
    },
    {
      "name": "Object_4",
      "extras": {
        "name": "Object_4"
      },
      "mesh": 2
    },
    {
      "name": "Frog_Headobjcleanermaterialmergergles",
      "extras": {
        "name": "Frog Head.obj.cleaner.materialmerger.gles"
      },
      "children": [
        0,
        1,
        2
      ]
    },
    {
      "matrix": [
        1,
        0,
        0,
        0,
        0,
        2.220446049250313e-16,
        -1,
        0,
        0,
        1,
        2.220446049250313e-16,
        0,
        0,
        0,
        0,
        1
      ],
      "name": "Sketchfab_model",
      "extras": {
        "name": "Sketchfab_model"
      },
      "children": [
        3
      ]
    },
    {
      "name": "frog_head.glb",
      "children": [
        4
      ]
    },
    {
      "matrix": [
        1,
        0,
        0,
        0,
        0,
        1,
        0,
        0,
        0,
        0,
        1,
        0,
        0,
        10,
        0,
        1
      ],
      "name": "HemisphereLight"
    }
  ],
  "bufferViews": [
    {
      "buffer": 0,
      "byteOffset": 0,
      "byteLength": 6564,
      "target": 34962,
      "byteStride": 12
    },
    {
      "buffer": 0,
      "byteOffset": 6564,
      "byteLength": 6564,
      "target": 34962,
      "byteStride": 12
    },
    {
      "buffer": 0,
      "byteOffset": 13128,
      "byteLength": 4376,
      "target": 34962,
      "byteStride": 8
    },
    {
      "buffer": 0,
      "byteOffset": 17504,
      "byteLength": 11808,
      "target": 34963
    },
    {
      "buffer": 0,
      "byteOffset": 29312,
      "byteLength": 34068,
      "target": 34962,
      "byteStride": 12
    },
    {
      "buffer": 0,
      "byteOffset": 63380,
      "byteLength": 34068,
      "target": 34962,
      "byteStride": 12
    },
    {
      "buffer": 0,
      "byteOffset": 97448,
      "byteLength": 22712,
      "target": 34962,
      "byteStride": 8
    },
    {
      "buffer": 0,
      "byteOffset": 120160,
      "byteLength": 60048,
      "target": 34963
    },
    {
      "buffer": 0,
      "byteOffset": 180208,
      "byteLength": 11208,
      "target": 34962,
      "byteStride": 12
    },
    {
      "buffer": 0,
      "byteOffset": 191416,
      "byteLength": 11208,
      "target": 34962,
      "byteStride": 12
    },
    {
      "buffer": 0,
      "byteOffset": 202624,
      "byteLength": 7472,
      "target": 34962,
      "byteStride": 8
    },
    {
      "buffer": 0,
      "byteOffset": 210096,
      "byteLength": 20544,
      "target": 34963
    }
  ],
  "buffers": [
    {
      "byteLength": 230640,
      "uri": "data:application/octet-stream;base64,"
    }
  ],
  "accessors": [
    {
      "bufferView": 0,
      "componentType": 5126,
      "count": 547,
      "max": [
        0.997717559337616,
        0.9986886978149414,
        0.9999638795852661
      ],
      "min": [
        -0.9979979991912842,
        -0.9990250468254089,
        -0.9954632520675659
      ],
      "type": "VEC3"
    },
    {
      "bufferView": 1,
      "componentType": 5126,
      "count": 547,
      "max": [
        0.10350199788808823,
        0.02875800058245659,
        1.7662450075149536
      ],
      "min": [
        -0.10025999695062637,
        -0.10618700087070465,
        1.5480910539627075
      ],
      "type": "VEC3"
    },
    {
      "bufferView": 2,
      "componentType": 5126,
      "count": 547,
      "max": [
        0.3571780025959015,
        0.8970339894294739
      ],
      "min": [
        0.31103500723838806,
        0.8646240234375
      ],
      "type": "VEC2"
    },
    {
      "bufferView": 3,
      "componentType": 5125,
      "count": 2952,
      "max": [
        546
      ],
      "min": [
        0
      ],
      "type": "SCALAR"
    },
    {
      "bufferView": 4,
      "componentType": 5126,
      "count": 2839,
      "max": [
        0.9996417164802551,
        0.9998118281364441,
        1
      ],
      "min": [
        -0.9996417164802551,
        -0.9999998807907104,
        -0.999987006187439
      ],
      "type": "VEC3"
    },
    {
      "bufferView": 5,
      "componentType": 5126,
      "count": 2839,
      "max": [
        0.22295799851417542,
        0.22375699877738953,
        1.874014973640442
      ],
      "min": [
        -0.22295799851417542,
        -0.09869100153446198,
        1.4751280546188354
      ],
      "type": "VEC3"
    },
    {
      "bufferView": 6,
      "componentType": 5126,
      "count": 2839,
      "max": [
        0.3793950080871582,
        0.4223630130290985
      ],
      "min": [
        0.05850199982523918,
        0.10107400268316269
      ],
      "type": "VEC2"
    },
    {
      "bufferView": 7,
      "componentType": 5125,
      "count": 15012,
      "max": [
        2838
      ],
      "min": [
        0
      ],
      "type": "SCALAR"
    },
    {
      "bufferView": 8,
      "componentType": 5126,
      "count": 934,
      "max": [
        0.998245358467102,
        0.8215415477752686,
        0.9826781749725342
      ],
      "min": [
        -0.998245358467102,
        -0.9999977350234985,
        -0.9988313913345337
      ],
      "type": "VEC3"
    },
    {
      "bufferView": 9,
      "componentType": 5126,
      "count": 934,
      "max": [
        0.1635970026254654,
        0.020907999947667122,
        1.8577769994735718
      ],
      "min": [
        -0.1635970026254654,
        -0.07582899928092957,
        1.7167749404907227
      ],
      "type": "VEC3"
    },
    {
      "bufferView": 10,
      "componentType": 5126,
      "count": 934,
      "max": [
        0.16296400129795074,
        1.6186519861221313
      ],
      "min": [
        0.06500200182199478,
        0.8558350205421448
      ],
      "type": "VEC2"
    },
    {
      "bufferView": 11,
      "componentType": 5125,
      "count": 5136,
      "max": [
        933
      ],
      "min": [
        0
      ],
      "type": "SCALAR"
    }
  ],
  "materials": [
    {
      "pbrMetallicRoughness": {
        "metallicFactor": 0,
        "roughnessFactor": 1,
        "baseColorTexture": {
          "index": 0,
          "texCoord": 0
        }
      },
      "doubleSided": true,
      "name": "Frog_Head_Hair_Color"
    },
    {
      "pbrMetallicRoughness": {
        "metallicFactor": 0,
        "roughnessFactor": 1,
        "baseColorTexture": {
          "index": 0,
          "texCoord": 0
        }
      },
      "doubleSided": true,
      "name": "Frog_Head_Part_Color"
    },
    {
      "pbrMetallicRoughness": {
        "metallicFactor": 0,
        "roughnessFactor": 1,
        "baseColorTexture": {
          "index": 0,
          "texCoord": 0
        }
      },
      "doubleSided": true,
      "name": "MI_CHR_Woman_FrogHead"
    }
  ],
  "textures": [
    {
      "sampler": 0,
      "source": 0
    }
  ],
  "samplers": [
    {
      "magFilter": 9729,
      "minFilter": 9987,
      "wrapS": 10497,
      "wrapT": 10497
    }
  ],
  "images": [
    {
      "mimeType": "image/png",
      "uri": "data:image/png;base64,"
    }
  ],
  "meshes": [
    {
      "primitives": [
        {
          "mode": 4,
          "attributes": {
            "NORMAL": 0,
            "POSITION": 1,
            "TEXCOORD_0": 2
          },
          "indices": 3,
          "material": 0
        }
      ]
    },
    {
      "primitives": [
        {
          "mode": 4,
          "attributes": {
            "NORMAL": 4,
            "POSITION": 5,
            "TEXCOORD_0": 6
          },
          "indices": 7,
          "material": 1
        }
      ]
    },
    {
      "primitives": [
        {
          "mode": 4,
          "attributes": {
            "NORMAL": 8,
            "POSITION": 9,
            "TEXCOORD_0": 10
          },
          "indices": 11,
          "material": 2
        }
      ]
    }
  ]
}